<svg width="1200" height="1200" viewBox="0 0 1200 1200" fill="none" xmlns="http://www.w3.org/2000/svg">
  <defs>
    <linearGradient id="bg" x1="92" y1="58" x2="1100" y2="1116" gradientUnits="userSpaceOnUse">
      <stop stop-color="#FFFDF5"/>
      <stop offset="1" stop-color="#EDE9FE"/>
    </linearGradient>
    <linearGradient id="top" x1="364" y1="226" x2="840" y2="618" gradientUnits="userSpaceOnUse">
      <stop stop-color="#8B5CF6"/>
      <stop offset="1" stop-color="#F472B6"/>
    </linearGradient>
  </defs>
  <rect width="1200" height="1200" rx="52" fill="url(#bg)"/>
  <rect x="86" y="86" width="1028" height="1028" rx="46" stroke="#1E293B" stroke-width="12"/>
  <g opacity="0.7">
    <path d="M146 184H520" stroke="#E2E8F0" stroke-width="6" stroke-dasharray="14 18"/>
    <path d="M146 258H520" stroke="#E2E8F0" stroke-width="6" stroke-dasharray="14 18"/>
    <path d="M146 332H520" stroke="#E2E8F0" stroke-width="6" stroke-dasharray="14 18"/>
    <path d="M146 406H520" stroke="#E2E8F0" stroke-width="6" stroke-dasharray="14 18"/>
    <path d="M200 130V474" stroke="#E2E8F0" stroke-width="6" stroke-dasharray="14 18"/>
    <path d="M280 130V474" stroke="#E2E8F0" stroke-width="6" stroke-dasharray="14 18"/>
    <path d="M360 130V474" stroke="#E2E8F0" stroke-width="6" stroke-dasharray="14 18"/>
    <path d="M440 130V474" stroke="#E2E8F0" stroke-width="6" stroke-dasharray="14 18"/>
  </g>
  <rect x="314" y="190" width="572" height="786" rx="54" fill="#FFFFFF"/>
  <rect x="320" y="196" width="560" height="774" rx="48" stroke="#1E293B" stroke-width="12"/>
  <rect x="370" y="250" width="460" height="278" rx="42" fill="url(#top)"/>
  <path d="M418 446C474 378 544 354 612 388C646 406 680 444 700 510" stroke="white" stroke-width="18" stroke-linecap="round"/>
  <text x="376" y="606" fill="#64748B" font-family="Arial, sans-serif" font-size="34" font-weight="700" letter-spacing="2">NEAR BENGALURU</text>
  <text x="376" y="674" fill="#1E293B" font-family="Arial, sans-serif" font-size="60" font-weight="800">Connected Green Pocket</text>
  <rect x="380" y="726" width="170" height="32" rx="16" fill="#D1FAE5"/>
  <rect x="566" y="726" width="136" height="32" rx="16" fill="#EDE9FE"/>
  <rect x="380" y="792" width="442" height="22" rx="11" fill="#E2E8F0"/>
  <rect x="380" y="832" width="356" height="22" rx="11" fill="#FCE7F3"/>
  <path d="M246 948C402 848 552 820 714 838C812 850 904 890 978 938" stroke="#34D399" stroke-width="14" stroke-linecap="round"/>
</svg>
