<svg width="512" height="512" viewBox="0 0 512 512" fill="none" xmlns="http://www.w3.org/2000/svg">
  <defs>
    <linearGradient id="bg" x1="56" y1="48" x2="452" y2="456" gradientUnits="userSpaceOnUse">
      <stop stop-color="#FFFDF5"/>
      <stop offset="1" stop-color="#FDF2F8"/>
    </linearGradient>
    <linearGradient id="pin" x1="320" y1="120" x2="424" y2="260" gradientUnits="userSpaceOnUse">
      <stop stop-color="#34D399"/>
      <stop offset="1" stop-color="#8B5CF6"/>
    </linearGradient>
    <linearGradient id="card" x1="132" y1="168" x2="292" y2="330" gradientUnits="userSpaceOnUse">
      <stop stop-color="#8B5CF6"/>
      <stop offset="1" stop-color="#F472B6"/>
    </linearGradient>
  </defs>
  <rect x="24" y="24" width="464" height="464" rx="120" fill="url(#bg)"/>
  <rect x="24" y="24" width="464" height="464" rx="120" stroke="#1E293B" stroke-width="16"/>
  <path d="M70 394C122 336 202 300 298 292C356 286 409 294 454 318" stroke="#E2E8F0" stroke-width="10" stroke-linecap="round" stroke-dasharray="10 14"/>
  <path d="M66 118H186" stroke="#FBBF24" stroke-width="20" stroke-linecap="round"/>
  <path d="M82 168H170" stroke="#34D399" stroke-width="16" stroke-linecap="round"/>
  <rect x="108" y="150" width="176" height="228" rx="40" fill="white"/>
  <rect x="108" y="150" width="176" height="228" rx="40" stroke="#1E293B" stroke-width="12"/>
  <rect x="132" y="182" width="128" height="92" rx="26" fill="url(#card)"/>
  <path d="M146 232C170 208 200 204 226 220C238 228 248 244 254 266" stroke="white" stroke-width="10" stroke-linecap="round"/>
  <path d="M140 300H252" stroke="#E2E8F0" stroke-width="12" stroke-linecap="round"/>
  <path d="M140 330H214" stroke="#FBBF24" stroke-width="12" stroke-linecap="round"/>
  <path d="M344 132C306 132 276 162 276 200C276 246 335 316 344 328C353 316 412 246 412 200C412 162 382 132 344 132Z" fill="url(#pin)"/>
  <path d="M344 132C306 132 276 162 276 200C276 246 335 316 344 328C353 316 412 246 412 200C412 162 382 132 344 132Z" stroke="#1E293B" stroke-width="12" stroke-linejoin="round"/>
  <circle cx="344" cy="200" r="28" fill="#FFFDF5" stroke="#1E293B" stroke-width="10"/>
  <path d="M92 426C160 384 234 368 316 380" stroke="#8B5CF6" stroke-width="14" stroke-linecap="round"/>
  <path d="M120 92C152 86 180 88 204 98" stroke="#F472B6" stroke-width="12" stroke-linecap="round"/>
  <text x="128" y="126" fill="#1E293B" font-family="Arial, sans-serif" font-size="74" font-weight="800">P</text>
</svg>
